<?xml version="1.0" encoding="utf-8"?>
<svg width="61px" height="61px" viewBox="0 0 61 61" version="1.1" xmlns:xlink="http://www.w3.org/1999/xlink" xmlns="http://www.w3.org/2000/svg">
  <desc>Created with Lunacy</desc>
  <path d="M30.5 0C13.6549 0 0 13.6549 0 30.5C0 45.7896 11.2636 58.4166 25.9403 60.6218L25.9403 38.5825L18.3946 38.5825L18.3946 30.5641L25.9403 30.5641L25.9403 25.2296C25.9403 16.3968 30.2438 12.5203 37.5852 12.5203C41.1018 12.5203 42.9592 12.7795 43.8407 12.8985L43.8407 19.8952L38.8326 19.8952C35.7155 19.8952 34.6267 22.8506 34.6267 26.1812L34.6267 30.5641L43.7614 30.5641L42.5231 38.5825L34.6297 38.5825L34.6297 60.6859C49.5168 58.6698 61 45.9391 61 30.5C61 13.6549 47.3452 0 30.5 0L30.5 0Z" id="Shape" fill="#5B5B5B" stroke="none" />
</svg>