<?xml version="1.0" encoding="utf-8"?>
<svg width="65px" height="63px" viewBox="0 0 65 63" version="1.1" xmlns:xlink="http://www.w3.org/1999/xlink" xmlns="http://www.w3.org/2000/svg">
  <desc>Created with Lunacy</desc>
  <path d="M22.1073 62.7702C23.1027 62.3418 23.7999 61.352 23.7999 60.1998L23.7999 52.6399C23.7999 52.3641 23.8223 52.0771 23.8573 51.7859C23.8377 51.7915 23.8195 51.7957 23.7999 51.7999C23.7999 51.7999 19.5999 51.7999 18.7599 51.7999C16.66 51.7999 14.84 50.9599 14 49.2799C13.02 47.4599 12.6 44.3799 10.08 42.6999C9.65997 42.4199 9.93997 41.9999 10.78 41.9999C11.62 42.1399 13.44 43.2599 14.56 44.7999C15.82 46.3399 17.08 47.5999 19.3199 47.5999C22.8017 47.5999 24.6679 47.4249 25.7907 46.8229C27.0983 44.8783 28.9085 43.3999 30.7999 43.3999L30.7999 43.3649C22.8647 43.1101 17.7954 40.4725 15.435 36.3999C10.304 36.4587 5.83658 36.9669 3.28719 37.3897C3.20599 36.9319 3.13599 36.4713 3.07579 36.0079C5.59158 35.5935 9.85597 35.1021 14.7588 35.0083C14.602 34.6219 14.4662 34.2257 14.3514 33.8197C9.43597 33.5705 5.19399 33.7651 2.88959 33.9555C2.86159 33.4907 2.82379 33.0273 2.81819 32.5569C5.12679 32.3679 9.25397 32.1789 14.0434 32.4015C13.9328 31.7015 13.8614 30.9861 13.8614 30.2413C13.8614 27.8613 14.7014 25.3413 16.2414 23.2413C15.5414 20.8613 14.5614 15.8214 16.5214 14.0014C20.3013 14.0014 22.9613 15.8214 24.2213 16.9414C26.5999 15.96 29.2599 15.4 32.1999 15.4C35.1399 15.4 37.7999 15.96 40.0399 16.94C41.2999 15.82 43.9599 14 47.7399 14C49.8399 15.96 48.7199 20.9999 48.0199 23.2399C49.5599 25.3399 50.3999 27.7199 50.2599 30.2399C50.2599 30.9175 50.1969 31.5713 50.1059 32.2125C55.0044 31.9717 59.2436 32.1649 61.5914 32.3553C61.5886 32.8271 61.5452 33.2877 61.52 33.7539C59.1806 33.5607 54.835 33.3619 49.8175 33.6293C49.6929 34.0997 49.5417 34.5575 49.3625 35.0013C54.3269 35.0657 58.6934 35.5459 61.3296 35.9659C61.2694 36.4307 61.1994 36.8913 61.1182 37.3477C58.4414 36.9193 53.8788 36.4181 48.6877 36.3929C46.3567 40.4221 41.3797 43.0499 33.5999 43.3565L33.5999 43.3999C37.2399 43.3999 40.5999 48.8599 40.5999 52.6399L40.5999 60.1998C40.5999 61.352 41.2971 62.3418 42.2925 62.7702C55.1178 58.5254 64.3998 46.4295 64.3998 32.1999C64.3998 14.4452 49.9561 0 32.1999 0C14.4438 0 0 14.4452 0 32.1999C0 46.4295 9.28197 58.5254 22.1073 62.7702L22.1073 62.7702Z" id="Shape" fill="#5B5B5B" stroke="none" />
</svg>