
<?xml version="1.0" encoding="utf-8"?>
<svg width="55px" height="55px" viewBox="0 0 55 55" version="1.1" xmlns:xlink="http://www.w3.org/1999/xlink" xmlns="http://www.w3.org/2000/svg">
  <desc>Created with Lunacy</desc>
  <path d="M7.32715 0C3.30615 0 0 3.30615 0 7.32715L0 47.5907C0 51.5939 3.30615 54.9 7.32715 54.9L47.5907 54.9C51.5939 54.9 54.9 51.5939 54.9 47.5907L54.9 7.32715C54.9 3.30615 51.5939 0 47.5907 0L7.32715 0ZM47.5907 4.575L41.175 4.575L41.175 13.725L50.325 13.725L50.325 7.32715C50.325 5.79023 49.1098 4.575 47.5907 4.575ZM27.45 18.3C32.5254 18.3 36.6 22.3746 36.6 27.45C36.6 32.5254 32.5254 36.6 27.45 36.6C22.3746 36.6 18.3 32.5254 18.3 27.45C18.3 22.3746 22.3746 18.3 27.45 18.3ZM13.725 27.45L4.575 27.45L4.575 47.5907C4.575 49.1098 5.79023 50.325 7.32715 50.325L47.5907 50.325C49.1098 50.325 50.325 49.1098 50.325 47.5907L50.325 27.45L41.175 27.45C41.175 35.0095 35.0095 41.175 27.45 41.175C19.8905 41.175 13.725 35.0095 13.725 27.45Z" id="Shape" fill="#5B5B5B" fill-rule="evenodd" stroke="none" />
</svg>