<?xml version="1.0" encoding="utf-8"?>
<svg width="198px" height="170px" viewBox="0 0 198 170" version="1.1" xmlns:xlink="http://www.w3.org/1999/xlink" xmlns="http://www.w3.org/2000/svg">
  <desc>Created with Lunacy</desc>
  <g id="Group" transform="matrix(0.1 0 0 -0.1 0 170)">
    <path d="M0 850L0 0L123 0L246 0L302 98C566 556 723 829 949 1218C1093 1467 1213 1677 1217 1685C1221 1698 1204 1700 1104 1700L985 1700L940 1621C915 1578 742 1277 555 952L215 362L212 1031L210 1700L105 1700L0 1700L0 850L0 850Z" id="Shape" fill="#FFFFFF" stroke="none" />
    <path d="M748 1043C745 395 745 390 723 350C675 260 585 206 486 205C405 205 357 222 304 268C252 314 222 367 213 430L207 475L104 475L0 475L0 442C0 393 27 298 58 241C101 160 187 80 277 37C354 0 356 0 480 0C604 0 606 0 684 38C820 102 919 228 949 373C956 408 960 636 960 1060L960 1695L855 1695L751 1695L748 1043L748 1043Z" transform="translate(1020 5)" id="Shape" fill="#FFFFFF" stroke="none" />
    <path d="M103 403L0 227L0 113L0 0L105 0L210 0L210 290C210 450 209 580 208 580C206 580 159 500 103 403L103 403Z" transform="translate(1020 700)" id="Shape" fill="#FFFFFF" stroke="none" />
  </g>
</svg>